<?xml version="1.0" standalone="no"?>
<!DOCTYPE svg PUBLIC "-//W3C//DTD SVG 20010904//EN"
 "http://www.w3.org/TR/2001/REC-SVG-20010904/DTD/svg10.dtd">
<svg version="1.0" xmlns="http://www.w3.org/2000/svg"
 width="277.000000pt" height="112.000000pt" viewBox="0 0 277.000000 112.000000"
 preserveAspectRatio="xMidYMid meet">
<metadata>
Created by potrace 1.10, written by Peter Selinger 2001-2011
</metadata>
<g transform="translate(0.000000,112.000000) scale(0.100000,-0.100000)"
fill="#000000" stroke="none">
<path d="M1688 1112 c-31 -4 -68 -44 -68 -74 0 -39 19 -58 58 -58 45 1 69 17
83 58 18 53 -10 82 -73 74z m21 -39 c-3 -20 2 -26 11 -13 5 8 10 11 10 5 0
-27 -17 -36 -43 -24 -28 13 -38 36 -12 25 8 -3 15 -1 15 4 0 6 5 10 10 10 6 0
9 -3 9 -7z"/>
<path d="M1968 1096 c-121 -24 -145 -36 -71 -36 31 0 55 -5 62 -14 9 -10 -2
-70 -45 -252 -69 -298 -76 -337 -64 -387 10 -45 23 -57 63 -57 67 0 125 61
184 193 21 48 -3 29 -26 -21 -25 -54 -75 -112 -95 -112 -16 0 -26 22 -26 57 0
22 121 586 136 636 3 9 2 16 -3 16 -4 -1 -56 -11 -115 -23z m67 -26 c-3 -5
-13 -10 -21 -10 -8 0 -13 -4 -9 -10 3 -5 12 -7 21 -3 11 4 14 0 12 -18 -2 -13
-8 -30 -12 -38 -5 -8 -9 -34 -9 -59 1 -38 -2 -43 -18 -39 -16 4 -17 -1 -14
-47 5 -59 -6 -123 -20 -116 -6 3 -9 9 -7 13 1 5 -2 6 -7 3 -6 -4 -8 5 -6 21 2
16 4 32 4 37 1 5 7 4 14 -2 9 -8 12 -4 12 18 0 15 -3 26 -7 23 -9 -5 -10 14
-2 44 3 11 14 23 25 26 10 3 19 13 19 24 -1 17 -1 17 -14 0 -8 -11 -17 -14
-20 -8 -4 5 2 16 12 23 11 7 18 22 16 33 -2 10 1 25 7 31 6 8 5 14 -6 18 -23
8 -18 34 8 39 12 2 23 5 25 6 2 0 0 -3 -3 -9z m-65 -373 c0 -4 -6 -5 -12 -1
-9 5 -9 2 1 -9 12 -15 11 -17 -10 -18 -13 0 -18 -3 -11 -6 6 -2 12 -13 12 -23
0 -10 -6 -20 -12 -23 -10 -4 -10 -7 0 -18 15 -16 16 -33 1 -23 -8 4 -9 -1 -4
-17 7 -21 6 -22 -8 -11 -9 8 -20 11 -25 8 -5 -3 -7 6 -4 20 3 19 7 22 13 12 6
-9 9 -9 9 -1 0 6 -5 15 -10 18 -7 4 -3 14 10 25 17 15 18 19 5 23 -8 4 -12 13
-9 22 3 8 10 12 15 9 6 -3 7 5 3 21 -6 25 -5 26 15 13 11 -7 21 -16 21 -21z
m-53 -171 c0 -8 -11 -19 -24 -25 -19 -9 -23 -8 -16 1 4 7 8 16 9 21 1 4 2 9 3
12 3 12 28 4 28 -9z m-4 -53 c-4 -10 -2 -14 4 -10 7 5 9 0 6 -13 -6 -22 -9
-23 -38 -10 -17 7 -17 9 -2 9 9 1 17 6 17 12 0 5 -4 7 -10 4 -11 -7 -14 8 -3
18 13 14 32 7 26 -10z m16 -76 c-1 -17 -2 -18 -6 -4 -2 9 -9 17 -14 17 -6 0
-7 -5 -3 -12 4 -6 3 -8 -4 -4 -5 3 -12 1 -14 -6 -3 -7 -7 -4 -10 7 -4 16 1 20
24 22 23 2 28 -2 27 -20z"/>
<path d="M2298 1096 c-59 -11 -110 -24 -114 -28 -4 -5 18 -8 49 -8 45 0 57 -3
61 -18 4 -10 -27 -162 -68 -338 -41 -176 -76 -327 -78 -335 -2 -11 9 -14 46
-14 l49 0 41 182 c39 166 45 185 80 227 73 90 185 141 248 115 87 -36 3 -155
-141 -199 -34 -11 -74 -20 -87 -20 -13 0 -24 -4 -24 -9 0 -23 114 -244 138
-266 85 -79 203 -16 262 140 16 41 -3 28 -25 -17 -46 -97 -114 -134 -156 -85
-20 22 -108 203 -109 222 0 6 26 18 58 27 110 32 202 114 202 180 0 19 -10 40
-29 59 -26 25 -37 29 -88 29 -91 -1 -183 -51 -238 -130 -16 -22 -30 -39 -32
-36 -2 2 14 79 37 170 22 92 40 169 40 172 0 5 6 6 -122 -20z m62 -39 c0 -8 4
-7 10 3 8 12 10 12 10 1 0 -8 -8 -20 -17 -27 -16 -12 -16 -15 -3 -24 11 -7 11
-10 2 -10 -7 0 -12 -6 -10 -12 1 -7 -1 -22 -4 -33 -3 -11 -9 -32 -12 -46 -3
-14 -12 -26 -21 -26 -18 0 -19 9 -2 26 10 11 9 12 -3 6 -10 -6 -9 -2 3 13 11
12 16 26 11 33 -5 8 -3 10 7 4 12 -8 12 -6 1 8 -12 14 -11 20 2 39 9 12 16 29
16 38 0 12 -2 13 -9 1 -5 -7 -14 -10 -20 -7 -18 12 -12 22 14 24 14 1 25 -4
25 -11z m-36 -219 c4 3 4 -2 0 -13 -4 -11 -15 -26 -23 -33 -9 -8 -11 -11 -4
-8 6 4 14 2 18 -4 3 -5 2 -10 -2 -10 -5 0 -10 -10 -10 -22 -3 -42 -10 -63 -21
-62 -29 2 -33 5 -27 14 4 6 11 8 16 5 5 -3 6 2 2 11 -4 11 -2 15 4 11 6 -4 13
3 16 14 4 15 2 19 -9 15 -10 -4 -13 1 -10 17 3 12 5 28 5 36 1 8 7 11 18 7 14
-6 14 -3 -3 15 -19 22 -19 22 2 11 12 -6 24 -8 28 -4z m-54 -169 c0 -5 4 -8 8
-5 5 3 9 -1 9 -9 0 -8 -4 -12 -9 -9 -4 3 -8 -3 -8 -13 0 -15 -2 -14 -16 5 -15
22 -12 42 7 42 5 0 9 -5 9 -11z m-25 -49 c-3 -5 0 -10 7 -10 8 0 14 -9 15 -20
1 -11 -3 -20 -8 -20 -6 0 -8 -4 -4 -9 3 -5 1 -12 -4 -16 -5 -3 -8 -14 -6 -25
2 -11 -2 -20 -8 -20 -7 0 -6 -4 3 -10 12 -8 11 -10 -8 -10 -19 0 -21 3 -12 19
14 27 13 44 -2 36 -7 -4 -6 -1 3 7 9 7 14 19 11 27 -3 8 0 11 6 7 6 -3 13 -2
17 4 3 5 0 10 -9 10 -8 0 -13 7 -11 18 5 23 4 22 11 22 3 0 2 -4 -1 -10z m215
-29 c13 -13 12 -14 -3 -8 -11 4 -17 1 -17 -9 0 -8 5 -12 10 -9 6 3 10 -1 10
-9 0 -9 5 -16 10 -16 6 0 10 -8 10 -17 0 -14 2 -15 9 -5 6 10 10 7 13 -12 3
-16 0 -27 -9 -31 -18 -6 -35 3 -28 16 10 15 -5 50 -18 43 -7 -4 -9 -4 -5 1 4
4 2 15 -4 23 -30 36 -9 67 22 33z m-229 -130 c-8 -5 -11 -16 -8 -25 4 -10 1
-16 -8 -16 -8 0 -15 -5 -15 -12 0 -6 -3 -9 -6 -5 -4 3 -3 14 1 24 8 16 10 24
14 38 0 3 9 5 19 5 14 0 14 -2 3 -9z m296 -21 c-3 -10 0 -21 7 -24 6 -2 3 -5
-6 -5 -9 -1 -20 4 -23 9 -3 6 -1 10 4 10 6 0 11 4 11 9 0 5 -9 7 -20 4 -11 -3
-20 0 -20 6 0 6 12 11 26 11 21 0 25 -4 21 -20z"/>
<path d="M723 915 c-60 -31 -103 -75 -139 -146 -14 -28 -27 -49 -29 -47 -2 2
7 48 21 102 14 54 23 100 21 103 -3 2 -75 -12 -161 -31 -161 -36 -172 -36
-218 -4 -25 18 -98 25 -112 11 -8 -9 102 -63 129 -63 27 0 -29 -38 -116 -79
-66 -31 -96 -66 -113 -131 -7 -24 -7 -24 6 -3 7 12 26 31 41 43 24 19 26 24
15 39 -12 14 -11 15 5 2 13 -10 20 -11 30 -2 8 6 16 8 19 6 3 -3 17 10 32 30
36 47 50 45 23 -4 l-22 -39 23 -40 c12 -22 22 -47 22 -56 0 -10 5 -14 11 -10
8 5 9 30 5 80 -11 117 16 153 137 184 80 20 127 15 127 -12 0 -7 -23 -110 -50
-228 -28 -118 -53 -228 -57 -243 -6 -28 -6 -28 43 -25 l48 3 39 150 c43 167
78 242 150 322 61 66 111 84 160 56 50 -30 55 -59 29 -176 -40 -184 -69 -312
-76 -334 -7 -22 -5 -23 46 -23 l54 0 18 83 c46 214 96 325 181 404 63 57 104
70 152 46 60 -29 62 -54 18 -254 -31 -143 -36 -180 -29 -218 7 -36 15 -49 37
-59 24 -12 33 -11 72 8 24 11 54 35 68 53 34 44 89 157 78 157 -6 0 -19 -19
-29 -42 -28 -61 -84 -123 -105 -115 -26 10 -22 76 13 222 16 69 31 145 31 168
4 93 -58 144 -163 134 -97 -9 -179 -71 -229 -175 -26 -52 -34 -49 -19 7 25 94
-27 162 -129 169 -45 3 -66 -2 -108 -23z m592 -45 c-3 -6 4 -14 15 -18 21 -8
21 -10 6 -25 -15 -15 -15 -17 1 -26 24 -14 11 -14 -24 0 -25 9 -26 12 -10 20
21 12 23 31 2 23 -18 -7 -20 7 -3 24 15 15 21 16 13 2z m-765 -23 c0 -4 0 -13
0 -20 0 -17 -42 -15 -48 2 -3 9 2 11 17 6 28 -9 27 3 -1 15 -22 9 -21 9 5 7
15 -2 27 -6 27 -10z m368 -14 c-10 -2 -18 -8 -18 -13 0 -4 9 -6 20 -3 11 3 20
1 20 -4 0 -18 -45 -9 -48 10 -3 12 3 17 20 16 17 -1 18 -3 6 -6z m-384 -49
c-5 -3 -9 -18 -8 -35 1 -19 -2 -29 -9 -26 -16 5 -20 69 -5 78 7 5 17 3 23 -3
7 -7 7 -12 -1 -14z m393 -25 c1 -12 -7 -23 -20 -29 -22 -9 -22 -9 3 -10 23 -1
23 -2 5 -9 -11 -5 -23 -7 -27 -4 -12 6 -10 43 2 43 6 0 9 3 9 8 -3 20 2 31 14
26 7 -2 13 -14 14 -25z m388 11 c-5 -14 -3 -18 8 -15 8 4 14 0 14 -9 0 -8 -4
-13 -8 -10 -14 8 -20 -15 -10 -35 8 -14 7 -22 -4 -31 -13 -11 -14 -10 -9 6 5
18 5 18 -10 0 -16 -19 -16 -19 -14 7 1 15 6 27 11 27 4 0 5 5 2 10 -3 6 0 10
7 11 10 0 10 2 1 6 -16 6 -17 25 -1 41 17 17 20 15 13 -8z m-799 -60 c16 0 19
-26 4 -35 -5 -3 -10 1 -10 9 0 9 -4 16 -9 16 -11 0 -9 -39 3 -58 4 -7 3 -12
-2 -12 -5 0 -8 -10 -7 -22 1 -13 -5 -28 -14 -34 -13 -10 -13 -14 -2 -28 11
-14 11 -16 -4 -16 -15 0 -16 -2 -4 -17 13 -15 12 -15 -8 -2 -13 8 -23 17 -23
22 0 4 5 5 10 2 6 -3 10 -1 10 4 0 6 -5 11 -11 11 -8 0 -8 4 0 14 9 11 9 15
-1 20 -7 3 -2 4 11 2 21 -4 23 -2 19 24 -2 16 -1 27 4 24 4 -3 8 0 8 5 0 6 -4
11 -9 11 -7 0 -8 40 -1 48 1 1 4 7 5 12 1 6 3 13 5 18 1 4 4 1 7 -5 2 -7 11
-13 19 -13z m397 -33 c3 -9 -2 -13 -16 -11 -12 1 -26 3 -30 3 -5 1 -5 6 -2 11
9 15 42 12 48 -3z m-23 -30 c13 3 18 0 16 -11 -1 -8 -5 -19 -9 -22 -4 -4 -7
-15 -7 -25 0 -26 -27 -31 -34 -6 -9 35 -7 39 17 32 20 -6 21 -5 5 8 -10 8 -18
20 -17 28 0 9 2 10 5 3 3 -7 13 -10 24 -7z m411 -41 c-14 -16 -23 -52 -22 -83
0 -11 -6 -24 -14 -27 -8 -3 -15 -13 -15 -22 0 -10 -3 -14 -7 -10 -9 9 -11 29
-3 36 13 13 29 50 21 50 -5 0 -7 9 -4 20 3 11 10 17 17 13 6 -3 6 0 -2 8 -10
11 -8 15 10 25 27 15 36 10 19 -10z m-421 -64 c0 -9 -6 -12 -15 -8 -13 5 -14
2 -4 -15 13 -25 4 -53 -13 -43 -9 5 -8 2 1 -10 12 -14 12 -19 1 -29 -10 -10
-12 -8 -6 7 6 16 4 17 -9 6 -14 -12 -16 -10 -12 16 3 22 9 28 23 26 15 -3 17
-1 7 9 -21 21 -16 58 7 56 11 -1 20 -8 20 -15z m397 -64 c0 -7 4 -20 7 -29 4
-10 1 -23 -9 -32 -8 -9 -11 -18 -6 -21 5 -4 11 0 14 6 2 7 8 10 12 5 5 -4 3
-13 -3 -19 -9 -9 -16 -7 -30 5 -10 9 -22 14 -26 10 -4 -4 -4 0 0 10 3 9 11 14
18 11 6 -3 3 1 -7 9 -18 15 -18 15 2 22 12 4 18 12 14 21 -3 7 -1 14 4 14 5 0
10 -6 10 -12z m-836 -45 c-10 -8 -12 -12 -4 -13 7 0 10 -7 7 -15 -4 -8 -14
-15 -23 -15 -14 0 -14 2 -1 10 12 7 12 10 1 10 -9 0 -11 6 -6 18 4 9 7 25 7
36 -1 18 -1 18 17 0 16 -17 16 -20 2 -31z"/>
<path d="M1598 906 c-101 -22 -146 -43 -68 -32 32 5 51 2 65 -8 19 -13 18 -17
-19 -182 -45 -195 -51 -281 -22 -313 37 -40 107 -22 165 44 33 38 97 155 84
155 -5 0 -21 -25 -37 -55 -31 -61 -79 -108 -105 -103 -30 6 -24 81 23 298 25
115 46 212 46 215 0 8 -27 4 -132 -19z m88 -39 c4 -4 2 -7 -4 -7 -7 0 -9 -11
-5 -30 3 -19 1 -30 -5 -30 -6 0 -9 -7 -6 -15 4 -8 1 -15 -6 -15 -6 0 -8 5 -5
10 3 6 2 10 -3 10 -5 0 -9 -16 -10 -35 -1 -26 2 -34 11 -29 7 4 3 -2 -7 -14
-13 -15 -15 -22 -6 -22 7 0 11 -3 7 -6 -3 -3 -14 -1 -24 5 -12 7 -13 10 -4 11
11 0 11 3 1 15 -7 8 -8 15 -3 15 5 0 10 6 10 13 3 54 8 87 14 87 13 0 20 -18
9 -23 -7 -4 -6 -5 1 -3 6 1 10 5 10 9 -1 4 -1 19 -2 35 0 24 -1 25 -9 7 -6
-15 -9 -16 -9 -4 -1 9 2 18 5 21 7 7 31 4 40 -5z m-66 -225 c-14 -5 -12 -29 2
-38 8 -5 9 -2 5 9 -3 10 -2 17 4 17 20 0 4 -33 -18 -36 -27 -4 -27 -2 -11 43
8 22 15 29 20 20 4 -6 3 -13 -2 -15z m-13 -86 c-20 -15 -23 -28 -4 -20 15 5
22 -42 8 -51 -5 -3 -7 5 -5 17 2 13 2 17 -2 11 -11 -25 -33 -14 -29 15 2 15 4
31 4 35 1 5 5 6 10 2 5 -3 13 0 16 6 4 5 10 7 13 4 4 -4 -1 -12 -11 -19z m4
-102 c12 -15 11 -16 -10 -9 -21 6 -22 5 -10 -8 8 -8 17 -13 22 -10 4 2 7 0 7
-6 0 -10 -39 -36 -44 -29 -2 2 -6 20 -9 41 -5 31 -3 37 12 37 10 0 25 -7 32
-16z"/>
<path d="M74 656 c-29 -45 -36 -64 -36 -101 1 -25 7 -55 14 -67 12 -22 12 -22
18 12 4 19 12 45 18 57 7 12 12 40 12 63 0 23 5 50 11 62 24 44 -2 26 -37 -26z"/>
<path d="M920 65 l0 -65 33 0 c48 0 77 24 77 65 0 41 -29 65 -77 65 l-33 0 0
-65z m78 33 c29 -29 7 -78 -35 -78 -21 0 -23 5 -23 45 0 40 2 45 23 45 13 0
28 -5 35 -12z"/>
<path d="M1100 65 l0 -65 45 0 c25 0 45 5 45 10 0 6 -16 10 -35 10 -27 0 -35
4 -35 18 0 15 6 18 30 14 18 -3 30 0 30 7 0 6 -13 11 -30 11 -23 0 -30 4 -30
20 0 16 7 20 35 20 19 0 35 5 35 10 0 6 -20 10 -45 10 l-45 0 0 -65z"/>
<path d="M1260 65 c0 -72 17 -90 22 -23 l3 42 28 -42 c15 -23 32 -42 37 -42 6
0 10 29 10 65 0 75 -17 89 -22 18 l-3 -48 -30 47 c-16 27 -33 48 -37 48 -5 0
-8 -29 -8 -65z"/>
<path d="M1430 65 c0 -37 4 -65 10 -65 6 0 10 19 10 43 l1 42 21 -39 21 -40
18 37 c25 48 32 47 24 -3 -4 -26 -3 -40 4 -40 6 0 11 20 11 49 0 27 3 56 6 65
4 10 1 16 -8 16 -8 0 -23 -18 -33 -40 -10 -22 -21 -40 -24 -40 -3 0 -14 18
-23 40 -25 59 -38 50 -38 -25z"/>
<path d="M1647 68 c-26 -60 -28 -90 -3 -55 17 22 55 22 72 0 7 -10 15 -16 17
-13 6 6 -43 130 -52 130 -3 0 -19 -28 -34 -62z m43 13 c0 -5 3 -16 6 -25 4
-12 0 -16 -16 -16 -16 0 -20 4 -16 16 3 9 6 20 6 25 0 5 5 9 10 9 6 0 10 -4
10 -9z"/>
<path d="M1800 65 c0 -37 4 -65 10 -65 6 0 10 11 10 25 0 33 19 32 46 -2 12
-16 26 -25 30 -21 4 5 0 16 -10 27 -15 16 -15 19 -1 24 18 7 20 48 3 65 -7 7
-29 12 -50 12 l-38 0 0 -65z m77 29 c3 -9 0 -20 -7 -24 -21 -13 -45 -4 -48 18
-3 18 2 22 23 22 14 0 28 -7 32 -16z"/>
<path d="M1970 65 c0 -37 4 -65 10 -65 6 0 10 12 10 27 l0 27 28 -27 c38 -37
50 -34 18 4 l-26 30 26 35 c31 41 21 45 -18 7 l-28 -27 0 27 c0 15 -4 27 -10
27 -6 0 -10 -28 -10 -65z"/>
</g>
</svg>
